<?xml version="1.0" encoding="UTF-8"?>
<!DOCTYPE svg PUBLIC "-//W3C//DTD SVG 1.1//EN" "http://www.w3.org/Graphics/SVG/1.1/DTD/svg11.dtd">
<!-- Creator: CorelDRAW X8 -->
<svg xmlns="http://www.w3.org/2000/svg" xml:space="preserve" width="4000px" height="4000px" version="1.1" style="shape-rendering:geometricPrecision; text-rendering:geometricPrecision; image-rendering:optimizeQuality; fill-rule:evenodd; clip-rule:evenodd"
viewBox="0 0 1333 1333"
 xmlns:xlink="http://www.w3.org/1999/xlink">
 <defs>
  <style type="text/css">
   <![CDATA[
    .fil0 {fill:none}
    .fil1 {fill:#373435}
   ]]>
  </style>
 </defs>
 <g id="Camada_x0020_1">
  <metadata id="CorelCorpID_0Corel-Layer"/>
  <rect class="fil0" width="1333" height="1333"/>
  <path class="fil1" d="M467 600l400 0c36,0 66,30 66,67l0 0c0,36 -30,66 -66,66l-400 0c-37,0 -67,-30 -67,-66l0 0c0,-37 30,-67 67,-67z"/>
  <path class="fil1" d="M467 400l400 0c36,0 66,30 66,67l0 0c0,36 -30,66 -66,66l-400 0c-37,0 -67,-30 -67,-66l0 0c0,-37 30,-67 67,-67z"/>
  <path class="fil1" d="M467 800l400 0c36,0 66,30 66,67l0 0c0,36 -30,66 -66,66l-400 0c-37,0 -67,-30 -67,-66l0 0c0,-37 30,-67 67,-67z"/>
  <path class="fil1" d="M667 133c294,0 533,239 533,534 0,294 -239,533 -533,533 -295,0 -534,-239 -534,-533 0,-295 239,-534 534,-534zm0 134c221,0 400,179 400,400 0,221 -179,400 -400,400 -221,0 -400,-179 -400,-400 0,-221 179,-400 400,-400z"/>
 </g>
</svg>
