<?xml version="1.0" encoding="UTF-8"?>
<!DOCTYPE svg PUBLIC "-//W3C//DTD SVG 1.1//EN" "http://www.w3.org/Graphics/SVG/1.1/DTD/svg11.dtd">
<!-- Creator: CorelDRAW X8 -->
<svg xmlns="http://www.w3.org/2000/svg" xml:space="preserve" width="4000px" height="4000px" version="1.1" style="shape-rendering:geometricPrecision; text-rendering:geometricPrecision; image-rendering:optimizeQuality; fill-rule:evenodd; clip-rule:evenodd"
viewBox="0 0 364 364"
 xmlns:xlink="http://www.w3.org/1999/xlink">
 <defs>
  <style type="text/css">
   <![CDATA[
    .fil0 {fill:none}
    .fil1 {fill:#373435}
   ]]>
  </style>
 </defs>
 <g id="Camada_x0020_1">
  <metadata id="CorelCorpID_0Corel-Layer"/>
  <rect class="fil0" width="364" height="364"/>
  <path class="fil1" d="M182 36c80,0 145,65 145,146 0,80 -65,145 -145,145 -81,0 -146,-65 -146,-145 0,-81 65,-146 146,-146zm0 37c60,0 109,49 109,109 0,60 -49,109 -109,109 -60,0 -109,-49 -109,-109 0,-60 49,-109 109,-109z"/>
  <g id="_1619773004736">
   <path class="fil1" d="M138 169l77 77c7,7 7,19 0,26l0 0c-7,7 -19,7 -26,0l-77 -77c-7,-7 -7,-19 0,-26l0 0c7,-7 19,-7 26,0z"/>
   <path class="fil1" d="M112 169l77 -77c7,-7 19,-7 26,0l0 0c7,7 7,18 0,26l-77 77c-7,7 -19,7 -26,0l0 0c-7,-7 -7,-19 0,-26z"/>
  </g>
 </g>
</svg>
