<?xml version="1.0" encoding="UTF-8"?>
<!DOCTYPE svg PUBLIC "-//W3C//DTD SVG 1.1//EN" "http://www.w3.org/Graphics/SVG/1.1/DTD/svg11.dtd">
<!-- Creator: CorelDRAW X8 -->
<svg xmlns="http://www.w3.org/2000/svg" xml:space="preserve" width="4000px" height="4000px" version="1.1" style="shape-rendering:geometricPrecision; text-rendering:geometricPrecision; image-rendering:optimizeQuality; fill-rule:evenodd; clip-rule:evenodd"
viewBox="0 0 800 800"
 xmlns:xlink="http://www.w3.org/1999/xlink">
 <defs>
  <style type="text/css">
   <![CDATA[
    .fil0 {fill:none}
    .fil1 {fill:#373435}
   ]]>
  </style>
 </defs>
 <g id="Camada_x0020_1">
  <metadata id="CorelCorpID_0Corel-Layer"/>
  <rect class="fil0" width="800" height="800"/>
  <path class="fil1" d="M280 360l240 0c22,0 40,18 40,40l0 0c0,22 -18,40 -40,40l-240 0c-22,0 -40,-18 -40,-40l0 0c0,-22 18,-40 40,-40z"/>
  <path class="fil1" d="M400 80c177,0 320,143 320,320 0,177 -143,320 -320,320 -177,0 -320,-143 -320,-320 0,-177 143,-320 320,-320zm0 80c133,0 240,107 240,240 0,133 -107,240 -240,240 -133,0 -240,-107 -240,-240 0,-133 107,-240 240,-240z"/>
 </g>
</svg>
