<?xml version="1.0" encoding="UTF-8"?>
<!DOCTYPE svg PUBLIC "-//W3C//DTD SVG 1.1//EN" "http://www.w3.org/Graphics/SVG/1.1/DTD/svg11.dtd">
<!-- Creator: CorelDRAW X8 -->
<svg xmlns="http://www.w3.org/2000/svg" xml:space="preserve" width="4000px" height="4000px" version="1.1" style="shape-rendering:geometricPrecision; text-rendering:geometricPrecision; image-rendering:optimizeQuality; fill-rule:evenodd; clip-rule:evenodd"
viewBox="0 0 800 800"
 xmlns:xlink="http://www.w3.org/1999/xlink">
 <defs>
  <style type="text/css">
   <![CDATA[
    .fil0 {fill:none}
    .fil1 {fill:#373435}
   ]]>
  </style>
 </defs>
 <g id="Camada_x0020_1">
  <metadata id="CorelCorpID_0Corel-Layer"/>
  <g id="_1587559738368">
   <rect class="fil0" width="800" height="800"/>
   <path class="fil1" d="M176 570l169 -170 -169 -170c-16,-15 -16,-41 0,-56l0 0c15,-16 41,-16 56,0l170 169 170 -169c15,-16 41,-16 56,0l0 0c16,15 16,41 0,56l-169 170 169 170c16,15 16,41 0,56l0 0c-15,16 -41,16 -56,0l-170 -169 -170 169c-15,16 -41,16 -56,0l0 0c-16,-15 -16,-41 0,-56z"/>
  </g>
 </g>
</svg>
