<?xml version="1.0" encoding="UTF-8"?>
<!DOCTYPE svg PUBLIC "-//W3C//DTD SVG 1.1//EN" "http://www.w3.org/Graphics/SVG/1.1/DTD/svg11.dtd">
<!-- Creator: CorelDRAW X8 -->
<svg xmlns="http://www.w3.org/2000/svg" xml:space="preserve" width="4000px" height="4000px" version="1.1" style="shape-rendering:geometricPrecision; text-rendering:geometricPrecision; image-rendering:optimizeQuality; fill-rule:evenodd; clip-rule:evenodd"
viewBox="0 0 800 800"
 xmlns:xlink="http://www.w3.org/1999/xlink">
 <defs>
  <style type="text/css">
   <![CDATA[
    .fil1 {fill:none}
    .fil0 {fill:#373435}
   ]]>
  </style>
 </defs>
 <g id="Camada_x0020_1">
  <metadata id="CorelCorpID_0Corel-Layer"/>
  <g id="_1587096563488">
   <path class="fil0" d="M401 80c-176,0 -320,147 -320,328 0,145 92,268 219,311 16,4 22,-7 22,-15 0,-8 0,-29 0,-56 -89,20 -108,-44 -108,-44 -15,-38 -36,-48 -36,-48 -29,-20 3,-20 3,-20 32,2 49,34 49,34 28,50 74,35 93,27 3,-21 11,-36 20,-44 -71,-8 -146,-36 -146,-162 0,-36 13,-65 33,-88 -3,-8 -14,-42 3,-87 0,0 27,-9 88,34 26,-8 53,-11 80,-11 27,0 54,3 80,11 61,-43 88,-34 88,-34 17,45 6,79 3,87 20,23 33,52 33,88 0,126 -75,154 -146,162 11,10 21,30 21,61 0,44 0,79 0,89 0,9 5,19 22,16 128,-43 219,-166 219,-311 0,-181 -143,-328 -320,-328l0 0z"/>
   <rect class="fil1" width="800" height="800"/>
  </g>
 </g>
</svg>
