<?xml version="1.0" encoding="UTF-8"?>
<!DOCTYPE svg PUBLIC "-//W3C//DTD SVG 1.1//EN" "http://www.w3.org/Graphics/SVG/1.1/DTD/svg11.dtd">
<!-- Creator: CorelDRAW X8 -->
<svg xmlns="http://www.w3.org/2000/svg" xml:space="preserve" width="4000px" height="4000px" version="1.1" style="shape-rendering:geometricPrecision; text-rendering:geometricPrecision; image-rendering:optimizeQuality; fill-rule:evenodd; clip-rule:evenodd"
viewBox="0 0 801 801"
 xmlns:xlink="http://www.w3.org/1999/xlink">
 <defs>
  <style type="text/css">
   <![CDATA[
    .fil0 {fill:#373435}
   ]]>
  </style>
 </defs>
 <g id="Camada_x0020_1">
  <metadata id="CorelCorpID_0Corel-Layer"/>
  <path class="fil0" d="M400 0c-221,0 -400,184 -400,410 0,182 115,336 274,390 20,4 27,-9 27,-20 0,-10 0,-35 0,-70 -112,25 -135,-55 -135,-55 -18,-47 -45,-60 -45,-60 -36,-25 3,-25 3,-25 40,3 61,43 61,43 36,62 94,44 117,34 3,-27 14,-45 25,-55 -89,-10 -182,-46 -182,-203 0,-45 15,-81 41,-110 -4,-10 -18,-52 4,-109 0,0 33,-11 110,42 32,-9 66,-13 100,-14 34,1 68,5 100,14 76,-53 109,-42 109,-42 22,57 8,99 4,109 26,29 41,65 41,110 0,158 -93,192 -182,202 14,13 27,38 27,76 0,55 -1,99 -1,113 0,11 7,23 28,19 160,-54 275,-207 275,-389 0,-226 -180,-410 -401,-410l0 0z"/>
 </g>
</svg>
