<?xml version="1.0" encoding="UTF-8"?>
<!DOCTYPE svg PUBLIC "-//W3C//DTD SVG 1.1//EN" "http://www.w3.org/Graphics/SVG/1.1/DTD/svg11.dtd">
<!-- Creator: CorelDRAW X8 -->
<svg xmlns="http://www.w3.org/2000/svg" xml:space="preserve" width="4000px" height="4000px" version="1.1" style="shape-rendering:geometricPrecision; text-rendering:geometricPrecision; image-rendering:optimizeQuality; fill-rule:evenodd; clip-rule:evenodd"
viewBox="0 0 4000 4000"
 xmlns:xlink="http://www.w3.org/1999/xlink">
 <defs>
  <style type="text/css">
   <![CDATA[
    .fil0 {fill:#373435}
   ]]>
  </style>
 </defs>
 <g id="Camada_x0020_1">
  <metadata id="CorelCorpID_0Corel-Layer"/>
  <path class="fil0" d="M3638 0l-3276 0c-200,0 -362,162 -362,362l0 3276c0,200 162,362 362,362l3276 0c200,0 362,-162 362,-362l0 -3276c0,-200 -162,-362 -362,-362zm-2400 3454c0,58 -47,105 -106,105l-448 0c-58,0 -105,-47 -105,-105l0 -1879c0,-58 47,-105 105,-105l448 0c59,0 106,47 106,105l0 1879zm-330 -2162c-235,0 -425,-190 -425,-425 0,-236 190,-426 425,-426 236,0 426,190 426,426 0,235 -190,425 -426,425zm2672 2170c0,54 -43,97 -97,97l-481 0c-53,0 -96,-43 -96,-97l0 -881c0,-132 38,-576 -344,-576 -296,0 -357,304 -369,441l0 1016c0,54 -43,97 -96,97l-466 0c-53,0 -96,-43 -96,-97l0 -1896c0,-53 43,-96 96,-96l466 0c53,0 96,43 96,96l0 164c110,-165 274,-292 621,-292 771,0 766,720 766,1115l0 909 0 0z"/>
 </g>
</svg>
