<?xml version="1.0" encoding="UTF-8"?>
<!DOCTYPE svg PUBLIC "-//W3C//DTD SVG 1.1//EN" "http://www.w3.org/Graphics/SVG/1.1/DTD/svg11.dtd">
<!-- Creator: CorelDRAW X8 -->
<svg xmlns="http://www.w3.org/2000/svg" xml:space="preserve" width="4000px" height="4000px" version="1.1" style="shape-rendering:geometricPrecision; text-rendering:geometricPrecision; image-rendering:optimizeQuality; fill-rule:evenodd; clip-rule:evenodd"
viewBox="0 0 1333 1333"
 xmlns:xlink="http://www.w3.org/1999/xlink">
 <defs>
  <style type="text/css">
   <![CDATA[
    .fil0 {fill:none}
    .fil1 {fill:#373435}
   ]]>
  </style>
 </defs>
 <g id="Camada_x0020_1">
  <metadata id="CorelCorpID_0Corel-Layer"/>
  <rect class="fil0" width="1333" height="1333"/>
  <path class="fil1" d="M200 600l933 0c37,0 67,30 67,67l0 0c0,36 -30,66 -67,66l-933 0c-37,0 -67,-30 -67,-66l0 0c0,-37 30,-67 67,-67z"/>
  <path class="fil1" d="M200 867l933 0c37,0 67,30 67,66l0 0c0,37 -30,67 -67,67l-933 0c-37,0 -67,-30 -67,-67l0 0c0,-36 30,-66 67,-66z"/>
  <path class="fil1" d="M200 333l933 0c37,0 67,30 67,67l0 0c0,37 -30,67 -67,67l-933 0c-37,0 -67,-30 -67,-67l0 0c0,-37 30,-67 67,-67z"/>
 </g>
</svg>
