<?xml version="1.0" encoding="UTF-8"?>
<!DOCTYPE svg PUBLIC "-//W3C//DTD SVG 1.1//EN" "http://www.w3.org/Graphics/SVG/1.1/DTD/svg11.dtd">
<!-- Creator: CorelDRAW X8 -->
<svg xmlns="http://www.w3.org/2000/svg" xml:space="preserve" width="4000px" height="4000px" version="1.1" style="shape-rendering:geometricPrecision; text-rendering:geometricPrecision; image-rendering:optimizeQuality; fill-rule:evenodd; clip-rule:evenodd"
viewBox="0 0 267 267"
 xmlns:xlink="http://www.w3.org/1999/xlink">
 <defs>
  <style type="text/css">
   <![CDATA[
    .fil0 {fill:none}
    .fil1 {fill:#373435}
   ]]>
  </style>
 </defs>
 <g id="Camada_x0020_1">
  <metadata id="CorelCorpID_0Corel-Layer"/>
  <rect class="fil0" width="267" height="267"/>
  <g id="_1619771023600">
   <path class="fil1" d="M152 124l-56 56c-6,6 -6,14 0,19l0 0c5,6 13,6 18,0l57 -56c5,-5 5,-14 0,-19l0 0c-5,-5 -14,-5 -19,0z"/>
   <path class="fil1" d="M171 124l-57 -57c-5,-5 -13,-5 -18,0l0 0c-6,6 -6,14 0,19l56 57c5,5 14,5 19,0l0 0c5,-5 5,-14 0,-19z"/>
  </g>
 </g>
</svg>
