<?xml version="1.0" encoding="UTF-8"?>
<!DOCTYPE svg PUBLIC "-//W3C//DTD SVG 1.1//EN" "http://www.w3.org/Graphics/SVG/1.1/DTD/svg11.dtd">
<!-- Creator: CorelDRAW X8 -->
<svg xmlns="http://www.w3.org/2000/svg" xml:space="preserve" width="4000px" height="4000px" version="1.1" style="shape-rendering:geometricPrecision; text-rendering:geometricPrecision; image-rendering:optimizeQuality; fill-rule:evenodd; clip-rule:evenodd"
viewBox="0 0 4000 4000"
 xmlns:xlink="http://www.w3.org/1999/xlink">
 <defs>
  <style type="text/css">
   <![CDATA[
    .fil0 {fill:none}
    .fil1 {fill:#373435}
   ]]>
  </style>
 </defs>
 <g id="Camada_x0020_1">
  <metadata id="CorelCorpID_0Corel-Layer"/>
  <rect class="fil0" width="4000" height="4000"/>
  <path class="fil1" d="M2492 2770l39 -38 -189 -189c-204,161 -462,257 -742,257 -663,0 -1200,-537 -1200,-1200 0,-663 537,-1200 1200,-1200 663,0 1200,537 1200,1200 0,278 -94,533 -253,737l190 189 38 -38 691 690 0 0 58 59c78,78 78,205 0,283l0 0c-78,77 -205,77 -283,0 -216,-217 -532,-534 -749,-750zm-892 -1970c442,0 800,358 800,800 0,442 -358,800 -800,800 -442,0 -800,-358 -800,-800 0,-442 358,-800 800,-800z"/>
 </g>
</svg>
