<?xml version="1.0" encoding="UTF-8"?>
<!DOCTYPE svg PUBLIC "-//W3C//DTD SVG 1.1//EN" "http://www.w3.org/Graphics/SVG/1.1/DTD/svg11.dtd">
<!-- Creator: CorelDRAW X8 -->
<svg xmlns="http://www.w3.org/2000/svg" xml:space="preserve" width="300px" height="40px" version="1.1" style="shape-rendering:geometricPrecision; text-rendering:geometricPrecision; image-rendering:optimizeQuality; fill-rule:evenodd; clip-rule:evenodd"
viewBox="0 0 300 40"
 xmlns:xlink="http://www.w3.org/1999/xlink">
 <defs>
  <style type="text/css">
   <![CDATA[
    .fil1 {fill:none}
    .fil0 {fill:#4B4B4D}
   ]]>
  </style>
 </defs>
 <g id="Camada_x0020_1">
  <metadata id="CorelCorpID_0Corel-Layer"/>
  <path class="fil0" d="M155 0c0,8 -7,15 -15,15 -6,0 -11,-4 -14,-9 -2,7 -9,12 -16,12 -5,0 -10,-3 -13,-7 -4,6 -10,9 -17,9 7,0 13,3 17,9 3,-4 8,-7 13,-7 7,0 14,5 16,12 3,-5 8,-9 14,-9 8,0 15,7 15,15l-155 0 0 -40 155 0zm-88 15c-2,2 -4,4 -7,5 3,1 5,3 7,5 3,-3 8,-5 13,-5 -5,0 -10,-2 -13,-5zm-32 5c1,1 1,1 2,2 1,-1 2,-2 3,-2 -1,0 -2,-1 -3,-2 -1,1 -1,1 -2,2zm255 17c1,0 3,2 3,3l-5 0c0,-1 1,-3 2,-3zm3 -37c0,1 -2,2 -3,2 -1,0 -2,-1 -2,-2l5 0zm-33 35c3,0 5,2 5,5l-10 0c0,-3 2,-5 5,-5zm5 -35c0,3 -2,5 -5,5 -3,0 -5,-2 -5,-5l10 0zm-35 32c4,0 8,4 8,8l-15 0c0,-4 3,-8 7,-8zm8 -32c0,4 -4,7 -8,7 -4,0 -7,-3 -7,-7l15 0zm-68 27c7,0 13,6 13,13l-25 0c0,-7 5,-13 12,-13zm13 -27c0,7 -6,12 -13,12 -7,0 -12,-5 -12,-12l25 0zm17 30c6,0 10,4 10,10l-20 0c0,-6 4,-10 10,-10zm10 -30c0,6 -4,10 -10,10 -6,0 -10,-4 -10,-10l20 0z"/>
  <rect class="fil1" width="300" height="39.996"/>
 </g>
</svg>
